<svg width="16" height="16" viewBox="0 0 16 16" fill="none" xmlns="http://www.w3.org/2000/svg">
    <style>
        path {
            fill: #1b1b43;
        }
        @media (prefers-color-scheme: dark) {
            path {
                fill: #e0e0f0;
            }
        }
    </style>
    <path fill-rule="evenodd" clipRule="evenodd" d="M8 16C12.4182 16 16 12.4185 16 8C16 3.58154 12.4182 0 8 0C3.58179 0 0 3.58154 0 8C0 12.4185 3.58179 16 8 16ZM4.52808 11.3721C4.88794 11.8359 5.51611 12.0679 6.41211 12.0679C6.69189 12.0679 6.93994 12.0322 7.15601 11.96C7.25342 11.9253 7.34033 11.8892 7.4165 11.8511C7.51562 11.8018 7.59668 11.75 7.65991 11.6958C7.87598 11.5122 8.02002 11.2759 8.09204 10.9878H8.18799L8.30811 11.7681C8.31592 11.896 8.56396 11.96 9.052 11.96C9.54004 11.96 10.0359 11.936 10.54 11.8882C11.0439 11.8398 11.2959 11.7598 11.2959 11.6479V5.46777C11.2959 5.15576 11.0039 5 10.4199 5C9.83594 5 9.2959 5.07178 8.80005 5.21582C8.30396 5.35986 8.05591 5.51611 8.05591 5.68408V10.0039C8.05591 10.1519 7.99634 10.249 7.87695 10.2959C7.82153 10.3174 7.75317 10.3281 7.67212 10.3281C7.47998 10.3281 7.36011 10.1919 7.31201 9.91992C7.26392 9.64014 7.23999 9.1958 7.23999 8.58789V5.54004C7.23999 5.18018 6.89209 5 6.19604 5C5.67603 5 5.17993 5.07617 4.70801 5.22803C4.23608 5.37207 4 5.52393 4 5.68408V8.94824C4 10.1001 4.17603 10.9082 4.52808 11.3721Z" fill="black"/>
</svg>
