<svg xmlns="http://www.w3.org/2000/svg" width="120" height="120" viewBox="68 53 135 137" version="1.1">
    <style>
        path {
            fill: #1b1b43;
        }
        @media (prefers-color-scheme: dark) {
            path {
                fill: #e0e0f0;
            }
        }
    </style>
	<path d="M 119.638 54.585 C 99.422 59.479, 80.889 75.831, 73.140 95.612 C 64.528 117.599, 67.183 141.425, 80.414 160.877 C 102.406 193.210, 148.096 199.807, 177.952 174.960 C 194.059 161.555, 203.019 142.454, 202.985 121.590 C 202.966 109.702, 200.988 101.609, 195.271 90.034 C 186.582 72.438, 169.722 58.924, 151 54.549 C 142.969 52.672, 127.469 52.690, 119.638 54.585 M 97.800 82.490 C 95.327 84.170, 93.060 87.164, 90.831 91.693 C 87.923 97.598, 87.526 99.372, 87.521 106.453 C 87.515 117.002, 89.913 123.966, 95.464 129.517 C 100.908 134.960, 105.412 135.947, 111.457 133.021 C 127.314 125.345, 128.361 92.573, 113.078 82.274 C 108.469 79.168, 102.566 79.251, 97.800 82.490 M 160 103.537 C 155.208 105.685, 150.274 110.614, 147.524 116 C 145.150 120.649, 142.765 128.098, 143.435 128.769 C 143.645 128.978, 145.545 128.023, 147.658 126.646 C 158.136 119.818, 172.200 119.302, 184.290 125.304 C 188.237 127.263, 191.559 128.774, 191.672 128.662 C 192.416 127.917, 186.923 114.587, 184.637 111.590 C 178.366 103.369, 167.961 99.967, 160 103.537 M 162 108.954 C 158.342 110.904, 151.938 117.006, 153.563 116.992 C 154.078 116.988, 157.274 116.535, 160.664 115.984 C 164.689 115.331, 169.189 115.318, 173.626 115.947 C 177.365 116.476, 180.560 116.773, 180.726 116.607 C 181.616 115.717, 176.098 110.495, 172.579 108.896 C 167.535 106.606, 166.394 106.612, 162 108.954 M 165 147.196 C 154.146 152.711, 146.658 154.371, 132.500 154.401 C 119.550 154.429, 110.870 152.502, 100.676 147.336 C 97.995 145.977, 95.710 145.008, 95.598 145.183 C 91.447 151.662, 91.179 150.987, 99.066 153.891 C 113.925 159.360, 120.603 160.443, 139.500 160.447 C 153.638 160.450, 158.895 160.070, 164 158.676 C 178.795 154.637, 178.277 155.154, 174.737 147.942 L 172.500 143.384 165 147.196" stroke="none" fill-rule="evenodd"></path>
</svg>